# xmcd CD database file
#
# Track frame offsets:
#	150
#	14552
#	27255
#	43724
#	62729
#	73857
#	91741
#	107283
#	131889
#	162489
#
# Disc length: 2313 seconds
#
# Revision: 0
# Processed by: cddbd v1.5PL3 Copyright (c) Steve Scherf et al.
# Submitted via: CDex 1.51
#
DISCID=8509070a
DTITLE=エレクトリックギュインズ - 幻惑デイズ
DYEAR=2004
DGENRE=JPop
TTITLE0=さくらの花咲くころ
TTITLE1=フリクション
TTITLE2=人間
TTITLE3=過ぎ去った夏
TTITLE4=幻惑デイズ
TTITLE5=虹色の街
TTITLE6=理想の花
TTITLE7=ユートピア
TTITLE8=さくらの唄
TTITLE9=ボッサリ父さん，日曜日
EXTD=YEAR: 2004
EXTT0=
EXTT1=
EXTT2=
EXTT3=
EXTT4=
EXTT5=
EXTT6=
EXTT7=
EXTT8=
EXTT9=
PLAYORDER=
